HIERARCHY
ROOT Hips
{
	OFFSET -0.001795 -0.223333 0.028219
	CHANNELS 6 Xposition Yposition Zposition Zrotation Yrotation Xrotation 
	JOINT LeftUpLeg
	{
		OFFSET 0.069520 -0.091406 -0.006815
		CHANNELS 3 Zrotation Yrotation Xrotation
		JOINT LeftLeg
		{
			OFFSET 0.034277 -0.375199 -0.004496
			CHANNELS 3 Zrotation Yrotation Xrotation
			JOINT LeftFoot
			{
				OFFSET -0.013596 -0.397961 -0.043693
				CHANNELS 3 Zrotation Yrotation Xrotation
				JOINT LeftToe
				{
					OFFSET 0.026358 -0.055791 0.119288
					CHANNELS 3 Zrotation Yrotation Xrotation
					End Site
					{
						OFFSET 0.000000 0.000000 0.000000
					}
				}
			}
		}
	}
	JOINT RightUpLeg
	{
		OFFSET -0.067670 -0.090522 -0.004320
		CHANNELS 3 Zrotation Yrotation Xrotation
		JOINT RightLeg
		{
			OFFSET -0.038290 -0.382569 -0.008850
			CHANNELS 3 Zrotation Yrotation Xrotation
			JOINT RightFoot
			{
				OFFSET 0.015774 -0.398415 -0.042312
				CHANNELS 3 Zrotation Yrotation Xrotation
				JOINT RightToe
				{
					OFFSET -0.025372 -0.048144 0.123348
					CHANNELS 3 Zrotation Yrotation Xrotation
					End Site
					{
						OFFSET 0.000000 0.000000 0.000000
					}
				}
			}
		}
	}
	JOINT Spine
	{
		OFFSET -0.002533 0.108963 -0.026696
		CHANNELS 3 Zrotation Yrotation Xrotation
		JOINT Spine1
		{
			OFFSET 0.005487 0.135180 0.001092
			CHANNELS 3 Zrotation Yrotation Xrotation
			JOINT Spine2
			{
				OFFSET 0.001457 0.052922 0.025425
				CHANNELS 3 Zrotation Yrotation Xrotation
				JOINT Neck
				{
					OFFSET -0.002778 0.213870 -0.042857
					CHANNELS 3 Zrotation Yrotation Xrotation
					JOINT Head
					{
						OFFSET 0.005152 0.064970 0.051349
						CHANNELS 3 Zrotation Yrotation Xrotation
						End Site
						{
							OFFSET 0.000000 0.000000 0.000000
						}
					}
				}
				JOINT LeftShoulder
				{
					OFFSET 0.078845 0.121749 -0.034090
					CHANNELS 3 Zrotation Yrotation Xrotation
					JOINT LeftArm
					{
						OFFSET 0.090977 0.030469 -0.008868
						CHANNELS 3 Zrotation Yrotation Xrotation
						JOINT LeftForeArm
						{
							OFFSET 0.259612 -0.012772 -0.027456
							CHANNELS 3 Zrotation Yrotation Xrotation
							JOINT LeftHand
							{
								OFFSET 0.249234 0.008986 -0.001171
								CHANNELS 3 Zrotation Yrotation Xrotation
								End Site
								{
									OFFSET 0.000000 0.000000 0.000000
								}
							}
						}
					}
				}
				JOINT RightShoulder
				{
					OFFSET -0.081759 0.118833 -0.038615
					CHANNELS 3 Zrotation Yrotation Xrotation
					JOINT RightArm
					{
						OFFSET -0.096012 0.032551 -0.009143
						CHANNELS 3 Zrotation Yrotation Xrotation
						JOINT RightForeArm
						{
							OFFSET -0.253742 -0.013329 -0.021401
							CHANNELS 3 Zrotation Yrotation Xrotation
							JOINT RightHand
							{
								OFFSET -0.255298 0.007772 -0.005559
								CHANNELS 3 Zrotation Yrotation Xrotation
								End Site
								{
									OFFSET 0.000000 0.000000 0.000000
								}
							}
						}
					}
				}
			}
		}
	}
}
MOTION
Frames: 14
Frame Time: 0.050000
0.000000 0.944615 0.000000 -4.123682 -7.884062 2.484062 0.978378 -0.736289 -9.418841 -2.742175 0.339600 4.676761 9.959659 19.819418 12.258407 0.000000 0.000000 0.000000 -4.831999 0.963244 -11.819155 19.340433 -7.325110 55.003277 -10.746400 -24.547906 15.138322 0.000000 0.000000 0.000000 -6.365431 0.478261 14.579046 5.237244 -0.557730 -26.428955 0.644633 1.940785 28.834423 2.342600 0.203781 -32.213305 0.000000 0.000000 0.000000 -27.696006 -3.439529 1.806523 -47.221484 -13.191652 -3.476357 -9.927201 -17.200956 2.337929 0.000000 0.000000 0.000000 19.327646 10.647525 4.022087 53.623364 14.028343 -1.541619 4.126642 19.122607 1.319100 0.000000 0.000000 0.000000 
-0.001560 0.944984 0.007739 -5.613408 -8.552090 2.624681 2.983171 -0.454766 -7.428752 -3.403101 0.444535 2.370335 10.202652 20.217105 11.745982 0.000000 0.000000 0.000000 -6.921237 0.979927 -13.676404 22.223956 -9.268954 57.311533 -12.100561 -26.119290 20.537430 0.000000 0.000000 0.000000 -5.299729 0.287181 13.426024 6.321519 -0.952044 -24.823397 0.509253 2.686685 28.790823 1.728529 0.745445 -34.420146 0.000000 0.000000 0.000000 -26.221912 -1.540664 0.472231 -47.618235 -13.103006 -3.474746 -14.858445 -19.067206 3.509855 0.000000 0.000000 0.000000 18.289112 10.357746 3.933109 53.176407 13.854896 -1.633332 7.304838 21.600386 2.063808 0.000000 0.000000 0.000000 
-0.004084 0.946629 0.015052 -5.759115 -8.942077 1.418768 3.370883 -0.308509 -5.417132 -3.664688 0.488552 2.201240 10.263557 20.310045 11.881188 0.000000 0.000000 0.000000 -7.467444 0.867838 -12.445488 20.652987 -7.772590 54.653101 -12.053372 -26.260844 18.845566 0.000000 0.000000 0.000000 -4.020291 0.099155 13.718758 5.099098 -0.750667 -24.203411 1.254327 3.394245 28.675750 1.982083 0.718233 -34.621723 0.000000 0.000000 0.000000 -25.554030 -2.792514 1.117208 -47.189893 -14.084800 -3.006414 -14.956717 -19.277616 3.536101 0.000000 0.000000 0.000000 15.949289 9.682273 3.647728 55.499443 14.106735 -1.507260 6.132914 24.131543 2.157747 0.000000 0.000000 0.000000 
-0.007231 0.947126 0.021486 -6.558482 -9.599562 1.126717 4.544931 -0.177830 -4.265668 -3.991123 0.543811 1.968337 10.548516 20.761757 11.706940 0.000000 0.000000 0.000000 -7.615498 0.922413 -13.406073 18.316896 -5.820829 50.789885 -13.175453 -27.915187 19.286304 0.000000 0.000000 0.000000 -4.310650 0.151775 14.267440 6.390704 -1.021770 -24.616808 1.709063 3.628396 28.868090 2.130407 0.813757 -37.279875 0.000000 0.000000 0.000000 -25.192161 -0.676765 -0.168423 -47.787769 -14.470601 -2.895397 -16.554113 -19.490635 3.900151 0.000000 0.000000 0.000000 15.798193 9.556326 3.571821 52.441180 15.686893 -0.917104 8.801820 24.335790 2.682305 0.000000 0.000000 0.000000 
-0.010756 0.946630 0.027170 -6.834050 -10.230401 0.460981 4.865461 -0.121991 -3.723541 -3.782959 0.533405 3.325505 10.932691 21.394624 11.316279 0.000000 0.000000 0.000000 -7.898502 0.842542 -12.138011 15.339783 -3.654888 42.826116 -13.398346 -28.382037 18.695470 0.000000 0.000000 0.000000 -4.098808 0.133525 14.753406 6.166911 -0.978608 -24.658952 2.723181 3.683540 29.436445 2.083576 0.841765 -38.142782 0.000000 0.000000 0.000000 -23.788121 -0.326045 -0.212439 -48.334453 -14.475667 -2.938166 -17.176030 -21.112572 4.403852 0.000000 0.000000 0.000000 14.593844 8.893568 3.165677 51.648936 16.226288 -0.749388 11.419877 26.110526 3.458344 0.000000 0.000000 0.000000 
-0.014938 0.945921 0.032277 -6.919164 -11.868767 0.093058 5.635288 -0.031853 -3.147102 -4.745553 0.740916 4.196012 11.733875 22.612175 11.436045 0.000000 0.000000 0.000000 -7.871226 0.836853 -11.420302 11.901803 -1.738920 33.881944 -13.126606 -28.567581 14.086267 0.000000 0.000000 0.000000 -3.861659 0.141085 15.326468 6.193546 -0.989895 -24.858588 2.927760 3.668248 29.789625 2.133712 0.759356 -39.291589 0.000000 0.000000 0.000000 -22.901819 0.257571 -0.241014 -48.966429 -14.369561 -3.019534 -17.237983 -23.209206 4.938338 0.000000 0.000000 0.000000 13.453476 10.102773 3.542716 51.484488 17.928462 -0.061221 11.117414 27.105893 3.492723 0.000000 0.000000 0.000000 
-0.020169 0.943452 0.036835 -6.985321 -13.103363 0.261408 6.098146 0.026496 -2.715966 -5.114800 0.830157 4.174865 12.413155 23.760730 10.928368 0.000000 0.000000 0.000000 -7.373958 0.874044 -11.224531 8.157642 -0.546889 23.700915 -10.691901 -24.965228 12.472670 0.000000 0.000000 0.000000 -3.335399 0.088019 15.227447 6.745382 -1.151188 -24.562459 3.055663 5.125282 29.057665 2.156161 0.768938 -37.874769 0.000000 0.000000 0.000000 -22.284163 0.407807 -0.539566 -49.154777 -13.766366 -3.125069 -18.394118 -23.793720 5.308700 0.000000 0.000000 0.000000 13.607149 9.373366 3.305864 49.984473 18.423733 0.144134 11.989901 27.951797 3.837654 0.000000 0.000000 0.000000 
-0.027093 0.941036 0.041411 -6.720860 -13.479672 -0.066842 6.490304 0.072429 -2.303388 -5.683397 0.967668 4.826082 12.598067 24.203013 10.194737 0.000000 0.000000 0.000000 -6.351571 0.815258 -9.736767 5.150813 -0.056670 16.155392 -10.315303 -24.346295 12.171341 0.000000 0.000000 0.000000 -3.085789 0.053790 15.073509 7.006491 -1.212202 -24.586860 2.824941 5.409532 29.176345 3.687984 0.259460 -39.897488 0.000000 0.000000 0.000000 -23.218715 -0.250475 -0.182181 -48.227007 -15.304565 -2.535661 -16.826562 -24.143549 4.996346 0.000000 0.000000 0.000000 14.023581 9.977992 3.591138 48.687849 18.493418 0.111310 11.702278 28.183360 3.780886 0.000000 0.000000 0.000000 
-0.036266 0.939179 0.046029 -6.227442 -13.340699 0.150193 7.028783 0.069975 -3.208419 -6.586224 1.225893 6.537753 12.558750 24.190894 9.780108 0.000000 0.000000 0.000000 -6.483842 0.841204 -10.168595 3.685325 0.131670 13.804210 -10.839979 -25.218408 17.884996 0.000000 0.000000 0.000000 -2.521979 -0.036815 14.559836 6.626949 -1.091776 -24.925353 3.117673 5.119519 28.439727 4.156922 -0.210125 -37.333281 0.000000 0.000000 0.000000 -23.810208 -0.372790 -0.065030 -47.841453 -16.520125 -2.023203 -17.039285 -23.068664 4.797456 0.000000 0.000000 0.000000 14.680826 9.634106 3.348952 47.306138 18.008898 -0.040424 12.750877 27.920503 3.942436 0.000000 0.000000 0.000000 
-0.047961 0.938753 0.051814 -5.878471 -14.145627 -0.298865 7.141540 0.131333 -2.049229 -6.354706 1.194185 6.451516 12.903000 24.719918 10.117710 0.000000 0.000000 0.000000 -6.861669 0.860177 -10.535118 2.166324 0.368733 12.527535 -13.040548 -27.712463 27.380293 0.000000 0.000000 0.000000 -2.209586 -0.080968 13.606724 6.869666 -1.206731 -24.510958 2.991314 5.930259 28.917645 5.509424 -0.750553 -37.831156 0.000000 0.000000 0.000000 -23.232561 -0.609887 0.040637 -49.077083 -17.026964 -1.828877 -15.515899 -23.854336 4.643597 0.000000 0.000000 0.000000 15.383233 9.271304 3.237047 47.101961 17.606091 -0.271960 12.806468 27.892836 3.973428 0.000000 0.000000 0.000000 
-0.062849 0.939593 0.059235 -5.475108 -12.594596 -0.773552 7.505202 0.150740 -1.069605 -5.940401 1.057140 6.253239 12.003906 23.297051 10.082953 0.000000 0.000000 0.000000 -7.082630 0.758426 -9.457580 2.056583 0.363877 12.694924 -18.089562 -31.730709 36.235790 0.000000 0.000000 0.000000 -1.712473 -0.176041 12.884594 7.043368 -1.190048 -24.921179 2.390275 5.049093 28.577899 5.599875 -1.056556 -35.327185 0.000000 0.000000 0.000000 -23.421349 -0.899124 0.184506 -48.941187 -17.083265 -1.787466 -15.548333 -23.805368 4.630392 0.000000 0.000000 0.000000 15.237763 8.796335 3.016292 48.199949 16.816493 -0.529925 13.049532 26.938289 3.888214 0.000000 0.000000 0.000000 
-0.080883 0.940916 0.067067 -4.920469 -11.862892 -1.321887 8.305845 0.200420 -0.061073 -6.280206 1.113544 6.392574 11.397231 22.226594 10.860286 0.000000 0.000000 0.000000 -7.175084 0.686824 -8.559195 2.144017 0.377364 13.541450 -22.730873 -34.301668 43.777310 0.000000 0.000000 0.000000 -1.587120 -0.197463 11.371710 7.310448 -1.347057 -24.020529 2.044254 4.571280 27.468692 6.635105 -1.761023 -33.489767 0.000000 0.000000 0.000000 -23.317276 -1.317512 0.408114 -49.452045 -17.021226 -1.703936 -14.768141 -22.436791 4.165140 0.000000 0.000000 0.000000 15.130352 8.305088 2.742803 48.429037 15.305402 -1.014016 14.368212 26.305562 4.059853 0.000000 0.000000 0.000000 
-0.101585 0.941719 0.074150 -4.770523 -10.548964 -1.551135 9.401066 0.214539 0.568953 -5.930312 1.010863 6.472442 10.562517 20.874497 11.363763 0.000000 0.000000 0.000000 -6.936626 0.560823 -6.421139 2.256834 0.281466 12.808782 -20.199108 -32.598574 41.076659 0.000000 0.000000 0.000000 -1.444254 -0.215587 10.122309 7.391299 -1.360002 -23.943362 1.760927 3.483533 27.419431 6.875249 -2.095662 -32.249290 0.000000 0.000000 0.000000 -22.948022 -0.901172 0.228283 -50.005810 -16.929688 -1.721892 -14.635579 -21.858919 4.026085 0.000000 0.000000 0.000000 15.667566 8.109800 2.584621 48.358699 13.699455 -1.632364 15.128018 26.140897 4.182537 0.000000 0.000000 0.000000 
-0.124236 0.942286 0.078656 -4.253746 -9.908518 -2.099273 10.491098 0.238977 0.982035 -6.054616 1.051296 7.305829 9.951053 19.848825 12.478503 0.000000 0.000000 0.000000 -6.631798 0.469237 -4.810189 2.296242 0.228372 12.201411 -19.452887 -32.047668 40.099456 0.000000 0.000000 0.000000 -1.788304 -0.179562 9.247215 8.219361 -1.588228 -23.587400 1.375207 3.454909 27.149581 7.902450 -2.605439 -31.939647 0.000000 0.000000 0.000000 -23.175315 -0.997871 0.159240 -50.078413 -16.847696 -1.716819 -14.266715 -20.479238 3.659080 0.000000 0.000000 0.000000 15.640200 8.292037 2.748993 48.565254 13.187445 -1.821689 15.423882 25.274080 4.098724 0.000000 0.000000 0.000000 
